#!OML:ASF E:\id_vita\Project 1\Capture day 1\Session 1\Female.ASF
:FULLY-SPECIFIED
:DEGREES
571
root 15.7536 16.4847 -1.25175 -292.909 -91.6801 307.332
lowerback -15.8714 1.28558 -5.35515
upperback -5.52946 2.24358 -0.765253
thorax 2.81459 1.01789 2.61178
lowerneck 7.57024 -1.33214 -5.6004
upperneck -3.20622 -1.98316 7.37853
head -2.25636 -1.14806 3.53007
rclavicle 1.48095e-014 -7.95139e-015
rhumerus -30.6046 -15.2975 -88.5721
rradius 23.691
rwrist 12.9871
rhand -12.3858 10.8359
rfingers 7.12502
rthumb 13.6852 -18.6941
lclavicle 1.48095e-014 -7.95139e-015
lhumerus -91.1353 54.0157 2.97505
lradius 11.4805
lwrist -88.5057
lhand -5.8571 23.8053
lfingers 7.12502
lthumb 19.9697 52.7992
rfemur -8.26161 -6.99871 19.1184
rtibia 53.0807
rfoot 21.0275 9.98928
rtoes 4.80906
lfemur -34.3239 -10.5821 -23.5069
ltibia 28.3917
lfoot -12.0017 1.03939
ltoes 8.32118
572
root 15.585 16.5117 -1.24982 -294.577 -92.0069 309.007
lowerback -15.8911 1.19427 -5.60779
upperback -5.53929 2.15933 -0.757396
thorax 2.80928 0.976931 2.74802
lowerneck 7.57504 -1.32468 -5.4456
upperneck -3.07154 -1.97474 7.13929
head -2.21342 -1.13823 3.41303
rclavicle -5.45167e-014 -4.17448e-015
rhumerus -30.765 -15.9002 -88.167
rradius 23.0117
rwrist 13.995
rhand -12.13 10.8723
rfingers 7.12502
rthumb 13.9317 -18.641
lclavicle -5.45167e-014 -4.17448e-015
lhumerus -83.3066 54.2495 12.6134
lradius 11.6688
lwrist -83.3878
lhand -6.39991 23.1781
lfingers 7.12502
lthumb 19.4479 52.2255
rfemur -9.86351 -7.34252 18.8211
rtibia 55.6545
rfoot 15.4122 7.2121
rtoes -13.2664
lfemur -33.3199 -10.2945 -23.9742
ltibia 27.9051
lfoot -12.3603 0.920901
ltoes 8.41362
573
root 15.4185 16.5437 -1.25603 -297.421 -92.2215 311.776
lowerback -15.8471 1.09825 -5.8516
upperback -5.49258 2.06853 -0.695008
thorax 2.82965 0.933523 2.93491
lowerneck 7.27251 -1.32543 -5.14842
upperneck -2.84394 -1.95857 6.81806
head -2.08372 -1.11889 3.23159
rclavicle 2.3233e-015 -1.03368e-014
rhumerus -30.767 -16.8734 -87.6297
rradius 22.1045
rwrist 15.3015
rhand -11.8896 11.2134
rfingers 7.12502
rthumb 14.1634 -18.2838
lclavicle 2.3233e-015 -1.03368e-014
lhumerus -74.5024 53.5433 23.4078
lradius 12.0047
lwrist -77.6283
lhand -6.70708 23.119
lfingers 7.12502
lthumb 19.1525 52.196
rfemur -11.4572 -7.69221 18.7474
rtibia 58.021
rfoot 14.2024 4.96575
rtoes -12.7886
lfemur -32.2852 -9.84341 -24.323
ltibia 27.5031
lfoot -12.7638 0.562672
ltoes 9.31518
574
root 15.2501 16.5738 -1.25249 -300.454 -92.4716 314.777
lowerback -15.8437 1.03619 -5.94484
upperback -5.48637 1.99827 -0.645397
thorax 2.83465 0.89913 3.02763
lowerneck 7.47505 -1.13888 -5.37634
upperneck -3.00141 -1.72225 7.03776
head -2.18965 -1.00845 3.35127
rclavicle -2.59414e-014 4.17448e-015
rhumerus -31.0328 -17.5997 -87.0796
rradius 21.567
rwrist 16.345
rhand -11.6633 11.2566
rfingers 7.12502
rthumb 14.3815 -18.2252
lclavicle -2.59414e-014 4.17448e-015
lhumerus -67.4107 52.246 32.1688
lradius 12.3629
lwrist -72.6403
lhand -7.19556 23.0328
lfingers 7.12502
lthumb 18.6827 52.1556
rfemur -13.1728 -7.96979 18.6462
rtibia 60.1373
rfoot 13.5634 2.84675
rtoes -10.5638
lfemur -31.3989 -9.52421 -24.6415
ltibia 27.2068
lfoot -13.0251 0.289752
ltoes 10.6904
575
root 15.0796 16.593 -1.24373 -306.89 -92.7707 321.183
lowerback -16.2212 1.02748 -5.89365
upperback -5.25594 2.01885 -0.549611
thorax 3.27731 0.894558 3.11914
lowerneck 7.71141 -1.06773 -5.32186
upperneck -3.40049 -1.61793 6.91533
head -2.37433 -0.95747 3.30828
rclavicle 5.32991e-015 1.5704e-014
rhumerus -31.0215 -18.0297 -86.6989
rradius 21.2119
rwrist 16.9512
rhand -11.5499 10.5432
rfingers 7.12502
rthumb 14.4907 -18.9308
lclavicle 5.32991e-015 1.5704e-014
lhumerus -62.8427 51.8376 37.5631
lradius 12.6013
lwrist -69.947
lhand -7.75365 22.6797
lfingers 7.12502
lthumb 18.1459 51.8533
rfemur -14.7653 -7.85976 18.6106
rtibia 62.0343
rfoot 12.1212 1.00165
rtoes -9.70897
lfemur -30.5567 -9.27524 -24.8208
ltibia 26.9638
lfoot -13.402 0.602835
ltoes 9.98678
